<?xml version="1.0" encoding="utf-8"?>
<!-- Generator: Adobe Illustrator 26.0.3, SVG Export Plug-In . SVG Version: 6.00 Build 0)  -->
<svg version="1.1" xmlns="http://www.w3.org/2000/svg" xmlns:xlink="http://www.w3.org/1999/xlink" x="0px" y="0px"
	 viewBox="0 0 1366 768" style="enable-background:new 0 0 1366 768;" xml:space="preserve">
<style type="text/css">
	.st0{fill:#FEF6EB;}
	.st1{clip-path:url(#SVGID_00000132778357487524047620000016583687354905251717_);fill:#3B1518;}
	.st2{clip-path:url(#SVGID_00000132778357487524047620000016583687354905251717_);fill:none;stroke:#FFFFFF;stroke-width:2;}
	.st3{clip-path:url(#SVGID_00000132778357487524047620000016583687354905251717_);fill:none;stroke:#FFFFFF;stroke-width:1.5;}
	.st4{fill:#FFFFFF;}
	.st5{fill:none;stroke:#FFFFFF;stroke-width:2;}
	.st6{clip-path:url(#SVGID_00000004520862506290841200000006197082782653676931_);fill:#FFFFFF;}
	.st7{clip-path:url(#SVGID_00000004520862506290841200000006197082782653676931_);fill:none;stroke:#FFFFFF;stroke-width:2;}
	.st8{clip-path:url(#SVGID_00000021817681047420885320000012807489791548960947_);fill:#ECA755;}
	.st9{fill:none;}
	.st10{fill:#468C84;}
	.st11{fill:#EA9640;}
	.st12{font-family:'Futura-Bold';}
	.st13{font-size:29.0101px;}
</style>
<g id="Layer_2">
	<g>
		<rect x="-19.5" y="-26.5" class="st0" width="1406" height="822"/>
		<path d="M1386-26v821H-19V-26H1386 M1387-27H-20v823h1407V-27L1387-27z"/>
	</g>
</g>
<g id="Layer_1">
	<g>
		<defs>
			<rect id="SVGID_1_" x="500.9" y="223.3" width="298.9" height="376.1"/>
		</defs>
		<clipPath id="SVGID_00000171705865560576448940000004407633240282718085_">
			<use xlink:href="#SVGID_1_"  style="overflow:visible;"/>
		</clipPath>
		<path style="clip-path:url(#SVGID_00000171705865560576448940000004407633240282718085_);fill:#3B1518;" d="M604.7,340.2
			c0,0-1.7-34.4,7.5-38.8c-12.4-10-8.8-19.6-3-25.3c5.8-5.6,20.5,3.2,19.2,10.9c10.6-2.4,18.4-7.4,40,2.7
			c1.5-18.3,14.7-20.9,22.5-13.4c7.9,7.6,1.4,19.5-6.7,21.6c11.4,19.7,10.2,21.4,9,38.5c-2.3,32.6,10.1,43.1,28.5,36.6
			c18.4-6.6,21.5-20.2,21.5-20.2s13.5-21.5,24.1-5.3c7,10.7,4.6,16.1-5.9,41.1c-10.4,25-52.1,35.7-52.1,35.7s7.9,72,5,107.5
			c-2.9,35.5,7,56.5-7.9,62c-15,5.5-27.5,1.2-30.8-5.1c-7.4-14.2,3.8-51.9-12.5-56.3c-22.5-6.1-26.6,1.8-26.6,1.8s1.3,53.9-4.5,59.5
			c-5.8,5.6-33.3,5.4-38.8-3c-5.6-8.4-7.2-47.1-8-66.6c-0.7-16.1,6.3-98.4,6.3-98.4s-41.1-4.2-51-26.1
			c-9.9-21.9-18.1-42.1-11.8-47.2c3.7-2.9,19.7-14.5,31.9,6.3c12.2,20.8,19.6,25.3,26.5,21.1C594.4,375.9,606.2,351.2,604.7,340.2"
			/>
		
			<path style="clip-path:url(#SVGID_00000171705865560576448940000004407633240282718085_);fill:none;stroke:#FFFFFF;stroke-width:2;" d="
			M604.7,340.2c0,0-1.7-34.4,7.5-38.8c-12.4-10-8.8-19.6-3-25.3c5.8-5.6,20.5,3.2,19.2,10.9c10.6-2.4,18.4-7.4,40,2.7
			c1.5-18.3,14.7-20.9,22.5-13.4c7.9,7.6,1.4,19.5-6.7,21.6c11.4,19.7,10.2,21.4,9,38.5c-2.3,32.6,10.1,43.1,28.5,36.6
			c18.4-6.6,21.5-20.2,21.5-20.2s13.5-21.5,24.1-5.3c7,10.7,4.6,16.1-5.9,41.1c-10.4,25-52.1,35.7-52.1,35.7s7.9,72,5,107.5
			c-2.9,35.5,7,56.5-7.9,62c-15,5.5-27.5,1.2-30.8-5.1c-7.4-14.2,3.8-51.9-12.5-56.3c-22.5-6.1-26.6,1.8-26.6,1.8s1.3,53.9-4.5,59.5
			c-5.8,5.6-33.3,5.4-38.8-3c-5.6-8.4-7.2-47.1-8-66.6c-0.7-16.1,6.3-98.4,6.3-98.4s-41.1-4.2-51-26.1
			c-9.9-21.9-18.1-42.1-11.8-47.2c3.7-2.9,19.7-14.5,31.9,6.3c12.2,20.8,19.6,25.3,26.5,21.1C594.4,375.9,606.2,351.2,604.7,340.2z"
			/>
		<path style="clip-path:url(#SVGID_00000171705865560576448940000004407633240282718085_);fill:#3B1518;" d="M644.6,318.2
			l-4.6,20.4c0,0,18.1,5.7,23.6,1.5c5.4-4.2-3.9-24.8-3.9-24.8L644.6,318.2z"/>
		
			<path style="clip-path:url(#SVGID_00000171705865560576448940000004407633240282718085_);fill:none;stroke:#FFFFFF;stroke-width:1.5;" d="
			M644.6,318.2l-4.6,20.4c0,0,18.1,5.7,23.6,1.5c5.4-4.2-3.9-24.8-3.9-24.8L644.6,318.2z"/>
	</g>
	<polygon class="st4" points="649.1,330.7 652.5,334.7 655.7,330.8 	"/>
	<polygon class="st5" points="649.1,330.7 652.5,334.7 655.7,330.8 	"/>
	<g>
		<defs>
			<rect id="SVGID_00000170279699020142449450000009246817252770169019_" x="500.9" y="223.3" width="298.9" height="376.1"/>
		</defs>
		<clipPath id="SVGID_00000153693460492607561400000005561167453503796409_">
			<use xlink:href="#SVGID_00000170279699020142449450000009246817252770169019_"  style="overflow:visible;"/>
		</clipPath>
		<path style="clip-path:url(#SVGID_00000153693460492607561400000005561167453503796409_);fill:#FFFFFF;" d="M629.6,318.3
			c1.1,0,1.9-0.6,1.9-1.3c0-0.7-0.8-1.3-1.9-1.4c-1.1,0-1.9,0.6-1.9,1.3C627.7,317.7,628.6,318.3,629.6,318.3"/>
		
			<path style="clip-path:url(#SVGID_00000153693460492607561400000005561167453503796409_);fill:none;stroke:#FFFFFF;stroke-width:2;" d="
			M629.6,318.3c1.1,0,1.9-0.6,1.9-1.3c0-0.7-0.8-1.3-1.9-1.4c-1.1,0-1.9,0.6-1.9,1.3C627.7,317.7,628.6,318.3,629.6,318.3z"/>
		<path style="clip-path:url(#SVGID_00000153693460492607561400000005561167453503796409_);fill:#FFFFFF;" d="M671.5,317.3
			c1.1,0,1.9-0.6,1.9-1.3c0-0.7-0.8-1.3-1.9-1.4c-1.1,0-1.9,0.6-1.9,1.3C669.6,316.7,670.4,317.3,671.5,317.3"/>
		
			<path style="clip-path:url(#SVGID_00000153693460492607561400000005561167453503796409_);fill:none;stroke:#FFFFFF;stroke-width:2;" d="
			M671.5,317.3c1.1,0,1.9-0.6,1.9-1.3c0-0.7-0.8-1.3-1.9-1.4c-1.1,0-1.9,0.6-1.9,1.3C669.6,316.7,670.4,317.3,671.5,317.3z"/>
	</g>
	<line class="st5" x1="610.7" y1="363.2" x2="602.8" y2="381.5"/>
	<line class="st5" x1="623" y1="360.9" x2="621.5" y2="375.6"/>
	<line class="st5" x1="637.2" y1="363.4" x2="635.5" y2="390.9"/>
	<line class="st5" x1="653.7" y1="367.1" x2="655.7" y2="386.1"/>
	<line class="st5" x1="671" y1="366" x2="677.2" y2="380.4"/>
	<line class="st5" x1="684.3" y1="362" x2="689.2" y2="383.1"/>
	<g>
		<defs>
			<rect id="SVGID_00000168088005655953605800000004237766088534918299_" x="500.9" y="223.3" width="298.9" height="376.1"/>
		</defs>
		<clipPath id="SVGID_00000028305900507612240060000014339379586092369545_">
			<use xlink:href="#SVGID_00000168088005655953605800000004237766088534918299_"  style="overflow:visible;"/>
		</clipPath>
		<path style="clip-path:url(#SVGID_00000028305900507612240060000014339379586092369545_);fill:#ECA755;" d="M761.7,282.4
			c0,0,3.8,6.1,1.9,16.6c-1.8,10.5-20.3,90.8-35.9,116.3c-15.5,25.5-11.7,29.4-11.7,29.4s8.7,9.8,16-6.5
			c7.3-16.3,24.4-69.4,24.4-69.4s13.9-80.4,20.3-80.9c21-1.5,32.8-45.5,12.3-62.2c-9.2-7.5-24.3,6.1-28.8,18
			C757.7,250.3,750.3,272,761.7,282.4"/>
		<path style="clip-path:url(#SVGID_00000028305900507612240060000014339379586092369545_);fill:#ECA755;" d="M515.4,300
			c0,0,10.1,3.2,12.8,20.2c2.7,17,15,61.1,15.7,79.7c0.7,18.6,0.1,42.1,4.4,43.8c4.3,1.8,11.8,2.9,14.5-3c2.8-5.9-8.1-37-9.3-43.2
			C552.3,391.3,538,317,538,317s-0.5-12.7,3.1-17.8c7.4-10.7,5-20.7,5-20.7s-11.2-54.4-15.8-51c8.8,49.2,8.6,48.4,8.6,48.4
			s-1.9,6.3-5.7-2.2c-3.9-8.5-6.7-42.6-11.9-43.7c-5.2-1.1,9.6,44.7,5.7,48.9c-1.1,1.2-2.6,1.3-4.4-4c-2.4-6.9-8.9-46.8-11.8-43
			c-0.3,8.8,6.2,36.8,6.4,46.8c0.1,6.4-4.1,2-5.8-3.8c-4.9-16.8-8.1-48.5-10.1-40.2C499.3,255,508.9,296.8,515.4,300"/>
	</g>
	<path id="SVGID_x5F_00000098202356325065698830000013894788878323242638_x5F_" class="st9" d="M3,361.3
		c213.7,36.9,274.6,89.5,288.9,132.1c12.5,37.2-14.3,55.4,5.7,89.9c38.9,66.9,193.4,89.9,307.3,85.8c173.7-6.1,196.2-72.9,318-58.8
		c121.9,14.2,146.2,86.6,275.7,92.1c70.1,3,130-15.3,167.4-29.9"/>
	<text>	<textPath  xlink:href="#SVGID_x5F_00000098202356325065698830000013894788878323242638_x5F_" startOffset="0.8828%">
<tspan  style="fill:#FFC6BB; font-family:'MyriadPro-Regular'; font-size:12.8634px;">YUMMY!  LET ME USE MY CALORIE COMPADRE!  I  LOVE MY COMPADRE ! HOW MANY WORKOUTS HAVE I DONE? I’LL CHECK MY CALORIE COMPADRE! HOW MAY CALORIES IN AN ORANGE? CALORIE COMPADRE</tspan>	</textPath>
</text>
	<polygon class="st10" points="252.7,111.2 257.6,121.1 268.5,122.7 260.6,130.4 262.5,141.3 252.7,136.2 242.9,141.3 244.8,130.4 
		236.8,122.7 247.8,121.1 	"/>
	<polygon class="st10" points="944.3,517.5 950.5,530.1 964.4,532.1 954.3,541.9 956.7,555.7 944.3,549.2 931.8,555.7 934.2,541.9 
		924.2,532.1 938.1,530.1 	"/>
	<polygon class="st10" points="535.7,532.3 540.2,541.1 550,542.5 542.9,549.3 544.6,558.8 535.7,554.3 526.9,558.8 528.6,549.3 
		521.4,542.5 531.3,541.1 	"/>
	<polygon class="st10" points="815.8,130.7 820.9,141 832.3,142.7 824.1,150.7 826,162.1 815.8,156.7 805.6,162.1 807.5,150.7 
		799.3,142.7 810.7,141 	"/>
	<polygon class="st10" points="147.5,550 152.7,560.5 164.3,562.2 155.9,570.4 157.9,581.9 147.5,576.5 137.2,581.9 139.2,570.4 
		130.8,562.2 142.4,560.5 	"/>
	<rect x="401.2" y="75.1" class="st9" width="607.8" height="72.6"/>
	<text transform="matrix(1 0 0 1 401.2461 99.187)"><tspan x="0" y="0" class="st11 st12 st13">TRACK YOUR HEALTH HABITS WITH A </tspan><tspan x="0" y="34.8" class="st11 st12 st13">DIARY MADE YOU YOU!</tspan></text>
	<polygon class="st10" points="321.4,377.4 325.8,386.1 335.7,387.5 328.5,394.3 330.2,403.9 321.4,399.4 312.5,403.9 314.2,394.3 
		307,387.5 316.9,386.1 	"/>
	<polygon class="st10" points="1018.4,209.5 1021.2,215 1027.4,215.9 1022.9,220.1 1024,226.1 1018.4,223.3 1012.9,226.1 
		1014,220.1 1009.5,215.9 1015.7,215 	"/>
	<polygon class="st10" points="1272.6,273.1 1277.3,281.2 1287.7,282.5 1280.2,288.8 1282,297.8 1272.6,293.5 1263.3,297.8 
		1265.1,288.8 1257.5,282.5 1268,281.2 	"/>
</g>
</svg>
