<?xml version="1.0" encoding="utf-8"?>
<!-- Generator: Adobe Illustrator 26.0.3, SVG Export Plug-In . SVG Version: 6.00 Build 0)  -->
<svg version="1.1" id="Layer_1" xmlns="http://www.w3.org/2000/svg" xmlns:xlink="http://www.w3.org/1999/xlink" x="0px" y="0px"
	 viewBox="0 0 720 720" style="enable-background:new 0 0 720 720;" xml:space="preserve">
<style type="text/css">
	.st0{clip-path:url(#SVGID_00000140011066460665654150000016846352190408626861_);fill:#3B1518;}
	.st1{clip-path:url(#SVGID_00000140011066460665654150000016846352190408626861_);fill:none;stroke:#FFFFFF;stroke-width:2;}
	.st2{clip-path:url(#SVGID_00000140011066460665654150000016846352190408626861_);fill:none;stroke:#FFFFFF;stroke-width:1.5;}
	.st3{fill:#FFFFFF;}
	.st4{fill:none;stroke:#FFFFFF;stroke-width:2;}
	.st5{clip-path:url(#SVGID_00000029725314748420340570000011152035498185186969_);fill:#FFFFFF;}
	.st6{clip-path:url(#SVGID_00000029725314748420340570000011152035498185186969_);fill:none;stroke:#FFFFFF;stroke-width:2;}
	.st7{clip-path:url(#SVGID_00000003809245928489567350000008956546361905212832_);fill:#ECA755;}
</style>
<g>
	<defs>
		<rect id="SVGID_1_" x="73.7" y="15.5" width="548.3" height="690"/>
	</defs>
	<clipPath id="SVGID_00000054950268758635079250000011016010179461610925_">
		<use xlink:href="#SVGID_1_"  style="overflow:visible;"/>
	</clipPath>
	<path style="clip-path:url(#SVGID_00000054950268758635079250000011016010179461610925_);fill:#3B1518;" d="M264.2,230
		c0,0-3.1-63.1,13.8-71.2c-22.8-18.3-16.2-36-5.5-46.3c10.7-10.3,37.7,5.9,35.3,20.1c19.5-4.4,33.8-13.6,73.3,5
		c2.7-33.6,26.9-38.4,41.3-24.5c14.4,13.9,2.5,35.8-12.2,39.7c20.9,36.1,18.8,39.2,16.6,70.7c-4.2,59.8,18.5,79.1,52.3,67.1
		c33.8-12,39.5-37.1,39.5-37.1s24.8-39.5,44.2-9.7c12.8,19.7,8.4,29.6-10.8,75.5c-19.2,45.9-95.6,65.6-95.6,65.6
		s14.5,132.1,9.1,197.2c-5.3,65.1,12.9,103.7-14.6,113.8c-27.4,10-50.4,2.3-56.5-9.4c-13.6-26,7-95.2-22.8-103.4
		c-41.2-11.2-48.8,3.4-48.8,3.4s2.5,98.8-8.2,109.1c-10.7,10.3-61,10-71.2-5.4c-10.2-15.4-13.2-86.4-14.6-122.1
		c-1.2-29.6,11.5-180.5,11.5-180.5s-75.4-7.6-93.6-47.9c-18.2-40.2-33.3-77.3-21.6-86.5c6.8-5.4,36.1-26.7,58.5,11.5
		s35.9,46.3,48.6,38.7C245.2,295.3,267,250,264.2,230"/>
	
		<path style="clip-path:url(#SVGID_00000054950268758635079250000011016010179461610925_);fill:none;stroke:#FFFFFF;stroke-width:2;" d="
		M264.2,230c0,0-3.1-63.1,13.8-71.2c-22.8-18.3-16.2-36-5.5-46.3c10.7-10.3,37.7,5.9,35.3,20.1c19.5-4.4,33.8-13.6,73.3,5
		c2.7-33.6,26.9-38.4,41.3-24.5c14.4,13.9,2.5,35.8-12.2,39.7c20.9,36.1,18.8,39.2,16.6,70.7c-4.2,59.8,18.5,79.1,52.3,67.1
		c33.8-12,39.5-37.1,39.5-37.1s24.8-39.5,44.2-9.7c12.8,19.7,8.4,29.6-10.8,75.5c-19.2,45.9-95.6,65.6-95.6,65.6
		s14.5,132.1,9.1,197.2c-5.3,65.1,12.9,103.7-14.6,113.8c-27.4,10-50.4,2.3-56.5-9.4c-13.6-26,7-95.2-22.8-103.4
		c-41.2-11.2-48.8,3.4-48.8,3.4s2.5,98.8-8.2,109.1c-10.7,10.3-61,10-71.2-5.4c-10.2-15.4-13.2-86.4-14.6-122.1
		c-1.2-29.6,11.5-180.5,11.5-180.5s-75.4-7.6-93.6-47.9c-18.2-40.2-33.3-77.3-21.6-86.5c6.8-5.4,36.1-26.7,58.5,11.5
		s35.9,46.3,48.6,38.7C245.2,295.3,267,250,264.2,230z"/>
	<path style="clip-path:url(#SVGID_00000054950268758635079250000011016010179461610925_);fill:#3B1518;" d="M337.4,189.5l-8.5,37.4
		c0,0,33.3,10.5,43.2,2.7c10-7.7-7.1-45.6-7.1-45.6L337.4,189.5z"/>
	
		<path style="clip-path:url(#SVGID_00000054950268758635079250000011016010179461610925_);fill:none;stroke:#FFFFFF;stroke-width:1.5;" d="
		M337.4,189.5l-8.5,37.4c0,0,33.3,10.5,43.2,2.7c10-7.7-7.1-45.6-7.1-45.6L337.4,189.5z"/>
</g>
<polygon class="st3" points="345.6,212.5 351.9,219.8 357.8,212.8 "/>
<polygon class="st4" points="345.6,212.5 351.9,219.8 357.8,212.8 "/>
<g>
	<defs>
		<rect id="SVGID_00000067914927073298451300000008862778097563657357_" x="73.7" y="15.5" width="548.3" height="690"/>
	</defs>
	<clipPath id="SVGID_00000044142519826248985360000004669013548043669893_">
		<use xlink:href="#SVGID_00000067914927073298451300000008862778097563657357_"  style="overflow:visible;"/>
	</clipPath>
	<path style="clip-path:url(#SVGID_00000044142519826248985360000004669013548043669893_);fill:#FFFFFF;" d="M309.9,189.7
		c1.9,0,3.5-1,3.5-2.4c0-1.4-1.5-2.5-3.5-2.5c-1.9,0-3.5,1-3.5,2.4C306.4,188.6,308,189.7,309.9,189.7"/>
	
		<path style="clip-path:url(#SVGID_00000044142519826248985360000004669013548043669893_);fill:none;stroke:#FFFFFF;stroke-width:2;" d="
		M309.9,189.7c1.9,0,3.5-1,3.5-2.4c0-1.4-1.5-2.5-3.5-2.5c-1.9,0-3.5,1-3.5,2.4C306.4,188.6,308,189.7,309.9,189.7z"/>
	<path style="clip-path:url(#SVGID_00000044142519826248985360000004669013548043669893_);fill:#FFFFFF;" d="M386.7,187.9
		c1.9,0,3.5-1,3.5-2.4c0-1.4-1.5-2.5-3.5-2.5c-1.9,0-3.5,1-3.5,2.4C383.2,186.8,384.8,187.9,386.7,187.9"/>
	
		<path style="clip-path:url(#SVGID_00000044142519826248985360000004669013548043669893_);fill:none;stroke:#FFFFFF;stroke-width:2;" d="
		M386.7,187.9c1.9,0,3.5-1,3.5-2.4c0-1.4-1.5-2.5-3.5-2.5c-1.9,0-3.5,1-3.5,2.4C383.2,186.8,384.8,187.9,386.7,187.9z"/>
</g>
<line class="st4" x1="275.1" y1="272.1" x2="260.6" y2="305.6"/>
<line class="st4" x1="297.7" y1="267.9" x2="295" y2="294.9"/>
<line class="st4" x1="323.8" y1="272.5" x2="320.8" y2="322.9"/>
<line class="st4" x1="354.1" y1="279.3" x2="357.8" y2="314.1"/>
<line class="st4" x1="385.7" y1="277.2" x2="397.1" y2="303.8"/>
<line class="st4" x1="410.2" y1="270" x2="419.1" y2="308.6"/>
<g>
	<defs>
		<rect id="SVGID_00000103252577717926323600000017833617699712425118_" x="73.7" y="15.5" width="548.3" height="690"/>
	</defs>
	<clipPath id="SVGID_00000177455959185581443550000017040716543497676967_">
		<use xlink:href="#SVGID_00000103252577717926323600000017833617699712425118_"  style="overflow:visible;"/>
	</clipPath>
	<path style="clip-path:url(#SVGID_00000177455959185581443550000017040716543497676967_);fill:#ECA755;" d="M552.2,123.8
		c0,0,6.9,11.2,3.5,30.5c-3.4,19.2-37.3,166.5-65.8,213.3c-28.5,46.8-21.4,53.8-21.4,53.8s16,18,29.3-12
		c13.3-30,44.8-127.4,44.8-127.4s25.6-147.6,37.2-148.4c38.5-2.8,60.1-83.5,22.6-114.2c-16.8-13.7-44.6,11.1-52.8,33
		C544.9,65,531.3,104.8,552.2,123.8"/>
	<path style="clip-path:url(#SVGID_00000177455959185581443550000017040716543497676967_);fill:#ECA755;" d="M100.4,156.1
		c0,0,18.6,5.9,23.5,37c4.9,31.1,27.4,112.1,28.8,146.2c1.3,34.1,0.3,77.2,8.1,80.4c7.8,3.2,21.6,5.3,26.7-5.5
		c5.1-10.9-14.9-67.8-17.1-79.2c-2.2-11.4-28.5-147.7-28.5-147.7s-0.8-23.4,5.6-32.6c13.6-19.5,9.2-37.9,9.2-37.9
		S136.1,17,127.6,23.3c16.1,90.2,15.8,88.8,15.8,88.8s-3.5,11.5-10.5-4.1c-7.1-15.6-12.3-78.2-21.9-80.2s17.6,81.9,10.4,89.8
		c-2,2.1-4.7,2.4-8.1-7.3c-4.4-12.7-16.3-85.9-21.6-78.8c-0.5,16.1,11.4,67.5,11.7,85.9c0.2,11.7-7.5,3.7-10.6-6.9
		c-8.9-30.8-14.8-89-18.6-73.7C70.8,73.6,88.5,150.4,100.4,156.1"/>
</g>
</svg>
