<?xml version="1.0" encoding="utf-8"?>
<!-- Generator: Adobe Illustrator 26.0.3, SVG Export Plug-In . SVG Version: 6.00 Build 0)  -->
<svg version="1.1" xmlns="http://www.w3.org/2000/svg" xmlns:xlink="http://www.w3.org/1999/xlink" x="0px" y="0px"
	 viewBox="0 0 1366 768" style="enable-background:new 0 0 1366 768;" xml:space="preserve">
<style type="text/css">
	.st0{fill:#FEF6EB;}
	.st1{clip-path:url(#SVGID_00000151518959727854736620000009822852107531466155_);fill:#3B1518;}
	.st2{clip-path:url(#SVGID_00000151518959727854736620000009822852107531466155_);fill:none;stroke:#FFFFFF;stroke-width:2;}
	.st3{clip-path:url(#SVGID_00000151518959727854736620000009822852107531466155_);fill:none;stroke:#FFFFFF;stroke-width:1.5;}
	.st4{fill:#FFFFFF;}
	.st5{fill:none;stroke:#FFFFFF;stroke-width:2;}
	.st6{clip-path:url(#SVGID_00000130626975723542993580000013944626327833186471_);fill:#FFFFFF;}
	.st7{clip-path:url(#SVGID_00000130626975723542993580000013944626327833186471_);fill:none;stroke:#FFFFFF;stroke-width:2;}
	.st8{clip-path:url(#SVGID_00000168822740920822299620000013214968427394430601_);fill:#ECA755;}
	.st9{fill:none;}
	.st10{fill:#468C84;}
	.st11{fill:#EA9640;}
	.st12{font-family:'Futura-Bold';}
	.st13{font-size:28px;}
</style>
<g id="Layer_2">
	<g>
		<rect x="-19.5" y="-26.5" class="st0" width="1406" height="822"/>
		<path d="M1386-26v821H-19V-26H1386 M1387-27H-20v823h1407V-27L1387-27z"/>
	</g>
</g>
<g id="Layer_1">
	<g>
		<defs>
			<rect id="SVGID_1_" x="504.5" y="265.1" width="288.5" height="363"/>
		</defs>
		<clipPath id="SVGID_00000142171383878523360590000003660462995619534270_">
			<use xlink:href="#SVGID_1_"  style="overflow:visible;"/>
		</clipPath>
		<path style="clip-path:url(#SVGID_00000142171383878523360590000003660462995619534270_);fill:#3B1518;" d="M604.8,378
			c0,0-1.6-33.2,7.3-37.5c-12-9.6-8.5-18.9-2.9-24.4c5.6-5.4,19.8,3.1,18.6,10.6c10.2-2.3,17.8-7.2,38.6,2.6
			c1.4-17.7,14.1-20.2,21.7-12.9c7.6,7.3,1.3,18.8-6.4,20.9c11,19,9.9,20.6,8.7,37.2c-2.2,31.5,9.8,41.6,27.5,35.3
			c17.8-6.3,20.8-19.5,20.8-19.5s13.1-20.8,23.3-5.1c6.7,10.3,4.4,15.6-5.7,39.7C746.2,449,706,459.4,706,459.4s7.6,69.5,4.8,103.7
			c-2.8,34.2,6.8,54.6-7.7,59.8c-14.4,5.3-26.5,1.2-29.7-4.9c-7.1-13.7,3.7-50.1-12-54.4c-21.7-5.9-25.7,1.8-25.7,1.8
			s1.3,52-4.3,57.4c-5.6,5.4-32.1,5.2-37.5-2.9c-5.4-8.1-6.9-45.5-7.7-64.3c-0.6-15.6,6.1-95,6.1-95s-39.7-4-49.2-25.2
			c-9.6-21.2-17.5-40.7-11.3-45.5c3.6-2.8,19-14,30.8,6.1c11.8,20.1,18.9,24.4,25.6,20.3C594.8,412.4,606.2,388.5,604.8,378"/>
		
			<path style="clip-path:url(#SVGID_00000142171383878523360590000003660462995619534270_);fill:none;stroke:#FFFFFF;stroke-width:2;" d="
			M604.8,378c0,0-1.6-33.2,7.3-37.5c-12-9.6-8.5-18.9-2.9-24.4c5.6-5.4,19.8,3.1,18.6,10.6c10.2-2.3,17.8-7.2,38.6,2.6
			c1.4-17.7,14.1-20.2,21.7-12.9c7.6,7.3,1.3,18.8-6.4,20.9c11,19,9.9,20.6,8.7,37.2c-2.2,31.5,9.8,41.6,27.5,35.3
			c17.8-6.3,20.8-19.5,20.8-19.5s13.1-20.8,23.3-5.1c6.7,10.3,4.4,15.6-5.7,39.7C746.2,449,706,459.4,706,459.4s7.6,69.5,4.8,103.7
			c-2.8,34.2,6.8,54.6-7.7,59.8c-14.4,5.3-26.5,1.2-29.7-4.9c-7.1-13.7,3.7-50.1-12-54.4c-21.7-5.9-25.7,1.8-25.7,1.8
			s1.3,52-4.3,57.4c-5.6,5.4-32.1,5.2-37.5-2.9c-5.4-8.1-6.9-45.5-7.7-64.3c-0.6-15.6,6.1-95,6.1-95s-39.7-4-49.2-25.2
			c-9.6-21.2-17.5-40.7-11.3-45.5c3.6-2.8,19-14,30.8,6.1c11.8,20.1,18.9,24.4,25.6,20.3C594.8,412.4,606.2,388.5,604.8,378z"/>
		<path style="clip-path:url(#SVGID_00000142171383878523360590000003660462995619534270_);fill:#3B1518;" d="M643.3,356.7
			l-4.5,19.7c0,0,17.5,5.5,22.8,1.4c5.2-4.1-3.7-24-3.7-24L643.3,356.7z"/>
		
			<path style="clip-path:url(#SVGID_00000142171383878523360590000003660462995619534270_);fill:none;stroke:#FFFFFF;stroke-width:1.5;" d="
			M643.3,356.7l-4.5,19.7c0,0,17.5,5.5,22.8,1.4c5.2-4.1-3.7-24-3.7-24L643.3,356.7z"/>
	</g>
	<polygon class="st4" points="647.6,368.8 650.9,372.6 654,368.9 	"/>
	<polygon class="st5" points="647.6,368.8 650.9,372.6 654,368.9 	"/>
	<g>
		<defs>
			<rect id="SVGID_00000032641303187301045590000015760261685724252551_" x="504.5" y="265.1" width="288.5" height="363"/>
		</defs>
		<clipPath id="SVGID_00000135684611466210990890000004200849582734278821_">
			<use xlink:href="#SVGID_00000032641303187301045590000015760261685724252551_"  style="overflow:visible;"/>
		</clipPath>
		<path style="clip-path:url(#SVGID_00000135684611466210990890000004200849582734278821_);fill:#FFFFFF;" d="M628.8,356.8
			c1,0,1.9-0.5,1.9-1.3c0-0.7-0.8-1.3-1.8-1.3c-1,0-1.9,0.5-1.9,1.3C627,356.2,627.8,356.8,628.8,356.8"/>
		
			<path style="clip-path:url(#SVGID_00000135684611466210990890000004200849582734278821_);fill:none;stroke:#FFFFFF;stroke-width:2;" d="
			M628.8,356.8c1,0,1.9-0.5,1.9-1.3c0-0.7-0.8-1.3-1.8-1.3c-1,0-1.9,0.5-1.9,1.3C627,356.2,627.8,356.8,628.8,356.8z"/>
		<path style="clip-path:url(#SVGID_00000135684611466210990890000004200849582734278821_);fill:#FFFFFF;" d="M669.2,355.9
			c1,0,1.9-0.5,1.9-1.3c0-0.7-0.8-1.3-1.8-1.3c-1,0-1.9,0.5-1.9,1.3C667.4,355.3,668.2,355.8,669.2,355.9"/>
		
			<path style="clip-path:url(#SVGID_00000135684611466210990890000004200849582734278821_);fill:none;stroke:#FFFFFF;stroke-width:2;" d="
			M669.2,355.9c1,0,1.9-0.5,1.9-1.3c0-0.7-0.8-1.3-1.8-1.3c-1,0-1.9,0.5-1.9,1.3C667.4,355.3,668.2,355.8,669.2,355.9z"/>
	</g>
	<line class="st5" x1="610.5" y1="400.1" x2="602.9" y2="417.8"/>
	<line class="st5" x1="622.4" y1="397.9" x2="621" y2="412.2"/>
	<line class="st5" x1="636.1" y1="400.4" x2="634.5" y2="426.9"/>
	<line class="st5" x1="652.1" y1="404" x2="654" y2="422.3"/>
	<line class="st5" x1="668.7" y1="402.8" x2="674.7" y2="416.8"/>
	<line class="st5" x1="681.6" y1="399" x2="686.3" y2="419.4"/>
	<g>
		<defs>
			<rect id="SVGID_00000048489029880217025560000012973085915875163283_" x="504.5" y="265.1" width="288.5" height="363"/>
		</defs>
		<clipPath id="SVGID_00000010277531503267452700000006564398990658019712_">
			<use xlink:href="#SVGID_00000048489029880217025560000012973085915875163283_"  style="overflow:visible;"/>
		</clipPath>
		<path style="clip-path:url(#SVGID_00000010277531503267452700000006564398990658019712_);fill:#ECA755;" d="M756.3,322.1
			c0,0,3.6,5.9,1.9,16c-1.8,10.1-19.6,87.6-34.6,112.2c-15,24.6-11.3,28.3-11.3,28.3s8.4,9.5,15.4-6.3c7-15.8,23.6-67,23.6-67
			s13.5-77.6,19.6-78.1c20.3-1.5,31.6-43.9,11.9-60.1c-8.8-7.2-23.4,5.8-27.8,17.4C752.4,291.2,745.3,312.2,756.3,322.1"/>
		<path style="clip-path:url(#SVGID_00000010277531503267452700000006564398990658019712_);fill:#ECA755;" d="M518.6,339.1
			c0,0,9.8,3.1,12.3,19.5c2.6,16.4,14.4,59,15.1,76.9c0.7,18,0.1,40.6,4.2,42.3c4.1,1.7,11.3,2.8,14-2.9c2.7-5.7-7.9-35.7-9-41.7
			c-1.1-6-15-77.7-15-77.7s-0.4-12.3,3-17.2c7.2-10.3,4.9-19.9,4.9-19.9s-10.8-52.5-15.3-49.2c8.5,47.5,8.3,46.7,8.3,46.7
			s-1.8,6-5.5-2.2c-3.7-8.2-6.5-41.2-11.5-42.2c-5.1-1,9.3,43.1,5.5,47.2c-1,1.1-2.5,1.3-4.2-3.8c-2.3-6.7-8.6-45.2-11.4-41.5
			c-0.3,8.5,6,35.5,6.1,45.2c0.1,6.2-3.9,2-5.6-3.7c-4.7-16.2-7.8-46.8-9.8-38.8C503,295.7,512.3,336.1,518.6,339.1"/>
	</g>
	<path id="SVGID_x5F_00000025437080310297049820000004275336019410144953_x5F_" class="st9" d="M24,398.3
		c206.3,35.7,265,86.4,278.9,127.5c12.1,35.9-13.8,53.5,5.5,86.7c37.5,64.6,186.7,86.7,296.6,82.8c167.7-5.9,189.4-70.4,306.9-56.7
		c117.7,13.7,141.1,83.5,266.1,88.9c67.7,2.9,125.4-14.8,161.5-28.9"/>
	<text>	<textPath  xlink:href="#SVGID_x5F_00000025437080310297049820000004275336019410144953_x5F_" startOffset="0.8828%">
<tspan  style="fill:#FFC6BB; font-family:'MyriadPro-Regular'; font-size:12.4155px;">YUMMY!  LET ME USE MY CALORIE COMPADRE!  I  LOVE MY COMPADRE ! HOW MANY WORKOUTS HAVE I DONE? I’LL CHECK MY CALORIE COMPADRE! HOW MAY CALORIES IN AN ORANGE? CALORIE COMPADRE</tspan>	</textPath>
</text>
	<polygon class="st10" points="265,156.9 269.7,166.5 280.3,168 272.6,175.5 274.5,186 265,181 255.5,186 257.4,175.5 249.7,168 
		260.3,166.5 	"/>
	<polygon class="st10" points="932.5,549.1 938.5,561.2 951.9,563.2 942.2,572.7 944.5,586 932.5,579.7 920.5,586 922.8,572.7 
		913.1,563.2 926.5,561.2 	"/>
	<polygon class="st10" points="538.2,563.4 542.4,571.8 552,573.2 545.1,579.7 546.7,589 538.2,584.6 529.6,589 531.3,579.7 
		524.3,573.2 533.9,571.8 	"/>
	<polygon class="st10" points="719.5,175.7 724.4,185.7 735.4,187.3 727.5,195.1 729.4,206.1 719.5,200.9 709.6,206.1 711.5,195.1 
		703.6,187.3 714.6,185.7 	"/>
	<polygon class="st10" points="163.5,580.5 168.5,590.6 179.7,592.2 171.6,600.1 173.5,611.3 163.5,606 153.5,611.3 155.4,600.1 
		147.3,592.2 158.5,590.6 	"/>
	<rect x="317.4" y="148.1" class="st9" width="586.6" height="70.1"/>
	<text transform="matrix(1 0 0 1 317.3789 171.3486)"><tspan x="0" y="0" class="st11 st12 st13">TRACK YOUR HEALTH HABITS, WITH A </tspan><tspan x="0" y="33.6" class="st11 st12 st13">DIARY MADE YOU YOU!</tspan></text>
	<polygon class="st10" points="331.3,413.9 335.5,422.3 345.1,423.6 338.2,430.2 339.8,439.4 331.3,435.1 322.7,439.4 324.4,430.2 
		317.4,423.6 327,422.3 	"/>
	<polygon class="st10" points="1004.1,251.9 1006.7,257.1 1012.7,258 1008.4,262 1009.4,267.8 1004.1,265.1 998.7,267.8 999.8,262 
		995.4,258 1001.4,257.1 	"/>
	<polygon class="st10" points="1249.4,313.2 1253.9,321 1264,322.3 1256.7,328.4 1258.4,337 1249.4,332.9 1240.4,337 1242.1,328.4 
		1234.9,322.3 1244.9,321 	"/>
</g>
</svg>
