<?xml version="1.0" encoding="utf-8"?>
<!-- Generator: Adobe Illustrator 26.0.3, SVG Export Plug-In . SVG Version: 6.00 Build 0)  -->
<svg version="1.1" id="Layer_1" xmlns="http://www.w3.org/2000/svg" xmlns:xlink="http://www.w3.org/1999/xlink" x="0px" y="0px"
	 viewBox="0 0 720 720" style="enable-background:new 0 0 720 720;" xml:space="preserve">
<style type="text/css">
	.st0{clip-path:url(#SVGID_00000154391844760870557850000015504251986340969106_);fill:#3B1518;}
	.st1{clip-path:url(#SVGID_00000154391844760870557850000015504251986340969106_);fill:none;stroke:#FFFFFF;stroke-width:2;}
	.st2{clip-path:url(#SVGID_00000154391844760870557850000015504251986340969106_);fill:none;stroke:#FFFFFF;stroke-width:1.5;}
	.st3{fill:#FFFFFF;}
	.st4{fill:none;stroke:#FFFFFF;stroke-width:2;}
	.st5{clip-path:url(#SVGID_00000082357309359051184510000009828869117163732128_);fill:#FFFFFF;}
	.st6{clip-path:url(#SVGID_00000082357309359051184510000009828869117163732128_);fill:none;stroke:#FFFFFF;stroke-width:2;}
	.st7{clip-path:url(#SVGID_00000067925918719956297130000012616952293878122399_);fill:#ECA755;}
	.st8{fill:#231F20;}
	.st9{font-family:'Futura-Bold';}
	.st10{font-size:52.0057px;}
	.st11{font-size:51.9834px;}
	.st12{font-size:51.9693px;}
	.st13{font-size:51.9652px;}
	.st14{font-size:51.9738px;}
	.st15{font-size:51.9899px;}
	.st16{font-size:52.0033px;}
	.st17{font-size:50.2478px;}
	.st18{font-size:50.2122px;}
	.st19{font-size:50.1815px;}
	.st20{font-size:50.1733px;}
	.st21{font-size:50.1854px;}
	.st22{font-size:50.2146px;}
	.st23{font-size:50.2475px;}
	.st24{font-size:50.2696px;}
</style>
<g>
	<defs>
		<rect id="SVGID_1_" x="0.1" y="-10.5" width="719.9" height="726.5"/>
	</defs>
	<clipPath id="SVGID_00000114032330403370804720000011150109907056444848_">
		<use xlink:href="#SVGID_1_"  style="overflow:visible;"/>
	</clipPath>
	<path style="clip-path:url(#SVGID_00000114032330403370804720000011150109907056444848_);fill:#3B1518;" d="M313,322.9
		c0,0-1.8-37.2,8.2-42c-13.5-10.8-9.6-21.3-3.2-27.3c6.3-6.1,22.3,3.5,20.9,11.8c11.5-2.6,20-8,43.4,2.9
		c1.6-19.8,15.9-22.7,24.5-14.5c8.5,8.2,1.5,21.1-7.2,23.4c12.3,21.3,11.1,23.2,9.8,41.7c-2.5,35.3,11,46.7,31,39.6
		c20-7.1,23.3-21.9,23.3-21.9s14.7-23.3,26.2-5.7c7.6,11.6,5,17.5-6.4,44.5c-11.3,27.1-56.5,38.7-56.5,38.7s8.6,78,5.4,116.4
		c-3.2,38.4,7.6,61.2-8.6,67.1c-16.2,5.9-29.8,1.3-33.4-5.5c-8-15.3,4.1-56.2-13.5-61c-24.4-6.6-28.9,2-28.9,2s1.5,58.3-4.8,64.4
		c-6.3,6.1-36.1,5.9-42.1-3.2c-6-9.1-7.8-51-8.7-72.1c-0.7-17.5,6.8-106.5,6.8-106.5s-44.6-4.5-55.4-28.3
		c-10.8-23.8-19.7-45.6-12.8-51.1c4-3.2,21.4-15.8,34.6,6.8c13.3,22.6,21.2,27.3,28.8,22.8C301.7,361.4,314.6,334.7,313,322.9"/>
	
		<path style="clip-path:url(#SVGID_00000114032330403370804720000011150109907056444848_);fill:none;stroke:#FFFFFF;stroke-width:2;" d="
		M313,322.9c0,0-1.8-37.2,8.2-42c-13.5-10.8-9.6-21.3-3.2-27.3c6.3-6.1,22.3,3.5,20.9,11.8c11.5-2.6,20-8,43.4,2.9
		c1.6-19.8,15.9-22.7,24.5-14.5c8.5,8.2,1.5,21.1-7.2,23.4c12.3,21.3,11.1,23.2,9.8,41.7c-2.5,35.3,11,46.7,31,39.6
		c20-7.1,23.3-21.9,23.3-21.9s14.7-23.3,26.2-5.7c7.6,11.6,5,17.5-6.4,44.5c-11.3,27.1-56.5,38.7-56.5,38.7s8.6,78,5.4,116.4
		c-3.2,38.4,7.6,61.2-8.6,67.1c-16.2,5.9-29.8,1.3-33.4-5.5c-8-15.3,4.1-56.2-13.5-61c-24.4-6.6-28.9,2-28.9,2s1.5,58.3-4.8,64.4
		c-6.3,6.1-36.1,5.9-42.1-3.2c-6-9.1-7.8-51-8.7-72.1c-0.7-17.5,6.8-106.5,6.8-106.5s-44.6-4.5-55.4-28.3
		c-10.8-23.8-19.7-45.6-12.8-51.1c4-3.2,21.4-15.8,34.6,6.8c13.3,22.6,21.2,27.3,28.8,22.8C301.7,361.4,314.6,334.7,313,322.9z"/>
	<path style="clip-path:url(#SVGID_00000114032330403370804720000011150109907056444848_);fill:#3B1518;" d="M356.3,299l-5,22.1
		c0,0,19.7,6.2,25.6,1.6c5.9-4.6-4.2-26.9-4.2-26.9L356.3,299z"/>
	
		<path style="clip-path:url(#SVGID_00000114032330403370804720000011150109907056444848_);fill:none;stroke:#FFFFFF;stroke-width:1.5;" d="
		M356.3,299l-5,22.1c0,0,19.7,6.2,25.6,1.6c5.9-4.6-4.2-26.9-4.2-26.9L356.3,299z"/>
</g>
<polygon class="st3" points="361.1,312.6 364.9,316.8 368.3,312.7 "/>
<polygon class="st4" points="361.1,312.6 364.9,316.8 368.3,312.7 "/>
<g>
	<defs>
		<rect id="SVGID_00000069360951180042746980000005355483536454046140_" x="0.1" y="-10.5" width="719.9" height="726.5"/>
	</defs>
	<clipPath id="SVGID_00000064332639217176379530000008807171007446039446_">
		<use xlink:href="#SVGID_00000069360951180042746980000005355483536454046140_"  style="overflow:visible;"/>
	</clipPath>
	<path style="clip-path:url(#SVGID_00000064332639217176379530000008807171007446039446_);fill:#FFFFFF;" d="M340,299.1
		c1.1,0,2.1-0.6,2.1-1.4c0-0.8-0.9-1.5-2-1.5c-1.1,0-2.1,0.6-2.1,1.4C338,298.4,338.9,299.1,340,299.1"/>
	
		<path style="clip-path:url(#SVGID_00000064332639217176379530000008807171007446039446_);fill:none;stroke:#FFFFFF;stroke-width:2;" d="
		M340,299.1c1.1,0,2.1-0.6,2.1-1.4c0-0.8-0.9-1.5-2-1.5c-1.1,0-2.1,0.6-2.1,1.4C338,298.4,338.9,299.1,340,299.1z"/>
	<path style="clip-path:url(#SVGID_00000064332639217176379530000008807171007446039446_);fill:#FFFFFF;" d="M385.4,298
		c1.1,0,2.1-0.6,2.1-1.4c0-0.8-0.9-1.5-2-1.5c-1.1,0-2.1,0.6-2.1,1.4C383.4,297.4,384.3,298,385.4,298"/>
	
		<path style="clip-path:url(#SVGID_00000064332639217176379530000008807171007446039446_);fill:none;stroke:#FFFFFF;stroke-width:2;" d="
		M385.4,298c1.1,0,2.1-0.6,2.1-1.4c0-0.8-0.9-1.5-2-1.5c-1.1,0-2.1,0.6-2.1,1.4C383.4,297.4,384.3,298,385.4,298z"/>
</g>
<line class="st4" x1="319.4" y1="347.7" x2="310.9" y2="367.5"/>
<line class="st4" x1="332.8" y1="345.2" x2="331.2" y2="361.2"/>
<line class="st4" x1="348.2" y1="348" x2="346.4" y2="377.7"/>
<line class="st4" x1="366.2" y1="352" x2="368.3" y2="372.5"/>
<line class="st4" x1="384.9" y1="350.7" x2="391.6" y2="366.4"/>
<line class="st4" x1="399.4" y1="346.5" x2="404.6" y2="369.3"/>
<g>
	<defs>
		<rect id="SVGID_00000155835015435362512850000012855469364175921073_" x="0.1" y="-10.5" width="719.9" height="726.5"/>
	</defs>
	<clipPath id="SVGID_00000169550011988714508430000004306889904256011666_">
		<use xlink:href="#SVGID_00000155835015435362512850000012855469364175921073_"  style="overflow:visible;"/>
	</clipPath>
	<path style="clip-path:url(#SVGID_00000169550011988714508430000004306889904256011666_);fill:#ECA755;" d="M483.4,260.2
		c0,0,4.1,6.6,2.1,18c-2,11.3-22.1,98.3-38.9,125.9c-16.9,27.6-12.7,31.8-12.7,31.8s9.5,10.6,17.3-7.1c7.9-17.7,26.5-75.2,26.5-75.2
		s15.1-87.1,22-87.6c22.8-1.7,35.5-49.3,13.4-67.4c-9.9-8.1-26.4,6.6-31.3,19.5C479,225.5,471,249,483.4,260.2"/>
	<path style="clip-path:url(#SVGID_00000169550011988714508430000004306889904256011666_);fill:#ECA755;" d="M216.1,279.3
		c0,0,11,3.5,13.9,21.8c2.9,18.4,16.2,66.2,17,86.3c0.8,20.1,0.2,45.6,4.8,47.5c4.6,1.9,12.8,3.1,15.8-3.3c3-6.4-8.8-40-10.1-46.7
		c-1.3-6.7-16.9-87.2-16.9-87.2s-0.5-13.8,3.3-19.3c8.1-11.5,5.5-22.4,5.5-22.4s-12.1-58.9-17.2-55.2c9.5,53.2,9.4,52.4,9.4,52.4
		s-2.1,6.8-6.2-2.4c-4.2-9.2-7.3-46.2-13-47.3c-5.7-1.1,10.4,48.3,6.1,53c-1.2,1.3-2.8,1.4-4.8-4.3c-2.6-7.5-9.7-50.7-12.8-46.5
		c-0.3,9.5,6.7,39.9,6.9,50.7c0.1,6.9-4.4,2.2-6.3-4.1c-5.3-18.2-8.8-52.6-11-43.5C198.6,230.6,209,275.9,216.1,279.3"/>
</g>
<text transform="matrix(0.8149 -0.5809 0.5822 0.813 206.5784 190.6619)" class="st8 st9 st10">C</text>
<text transform="matrix(0.9221 -0.3911 0.392 0.92 244.0689 161.4702)" class="st8 st9 st11">A</text>
<text transform="matrix(0.9847 -0.1861 0.1866 0.9824 293.265 139.9037)" class="st8 st9 st12">L</text>
<text transform="matrix(1.0015 3.986879e-02 -3.996090e-02 0.9992 330.3331 129.7559)" class="st8 st9 st13">O</text>
<text transform="matrix(0.9653 0.2686 -0.2692 0.9631 389.3251 130.9261)" class="st8 st9 st14">R</text>
<text transform="matrix(0.8921 0.4549 -0.4559 0.89 437.4402 143.8225)" class="st8 st9 st15">I</text>
<text transform="matrix(0.827 0.5637 -0.565 0.8251 470.0144 160.1827)" class="st8 st9 st16">E</text>
<text transform="matrix(0.5979 0.8008 -0.8026 0.5965 129.6882 532.7913)" class="st8 st9 st17">C</text>
<text transform="matrix(0.8158 0.5796 -0.581 0.8139 178.6612 595.0446)" class="st8 st9 st18">O</text>
<text transform="matrix(0.9655 0.2679 -0.2685 0.9633 257.3746 646.86)" class="st8 st9 st19">M</text>
<text transform="matrix(1.0018 -3.270703e-02 3.278260e-02 0.9995 351.348 667.9738)" class="st8 st9 st20">P</text>
<text transform="matrix(0.9483 -0.323 0.3237 0.9461 427.1154 662.8917)" class="st8 st9 st21">A</text>
<text transform="matrix(0.8032 -0.5969 0.5983 0.8013 506.7961 632.3378)" class="st8 st9 st22">D</text>
<text transform="matrix(0.6002 -0.799 0.8009 0.5988 571.4306 580.7094)" class="st8 st9 st23">R</text>
<text transform="matrix(0.4097 -0.9105 0.9126 0.4087 613.2849 519.8375)" class="st8 st9 st24">E</text>
</svg>
